<svg viewBox="0 0 64 64" xmlns="http://www.w3.org/2000/svg"><path d="m60 58.2c0 2.1-1.7 3.8-3.9 3.8h-45.3c-2.1 0-3.9-1.7-3.9-3.8v-44.3c0-2.1 1.7-3.8 3.9-3.8h45.4c2.1 0 3.9 1.7 3.9 3.8v44.3z" fill="#93a2aa"/><path d="m57.1 13.9c0-2.1-1.7-3.8-3.9-3.8h-45.3c-2.1 0-3.9 1.7-3.9 3.8v21.3h53.1z" fill="#ed4c5c"/><path d="m4 35.1v23.1c0 2.1 1.7 3.8 3.9 3.8h45.4c2.1 0 3.9-1.7 3.9-3.8v-23.1z" fill="#d9e3e8"/><g fill="#3e4347"><ellipse cx="13.1" cy="17" rx="2.9" ry="2.8"/><ellipse cx="24.8" cy="17" rx="2.9" ry="2.8"/><ellipse cx="36.3" cy="17" rx="2.9" ry="2.8"/><ellipse cx="47.9" cy="17" rx="2.9" ry="2.8"/><path d="m40.6 4.6c-.7-1.2-1.7-2.5-3.6-2.6-1.8-.1-1.9 2.1-.1 2.2 0 0 .4.3.3.2.4.4.6.9.9 1.4.6 1.4.8 2.9.8 4.4h2.9c-.1-1.9-.4-3.9-1.2-5.6m-3.7-.4c.1 0 .1 0 0 0m-7.9.4c-.6-1.2-1.7-2.5-3.6-2.6-1.8-.1-1.9 2.1-.1 2.2 0 0 .4.3.3.2.4.4.6.9.9 1.4.6 1.4.8 2.9.8 4.4h2.9c-.1-1.9-.3-3.9-1.2-5.6m-11.6 0c-.6-1.2-1.7-2.5-3.6-2.6-1.8-.1-1.8 2.1 0 2.2 0 0 .4.3.3.2.4.4.6.9.9 1.4.6 1.4.8 2.9.8 4.4h2.9c-.1-1.9-.4-3.9-1.3-5.6m34.7 0c-.6-1.2-1.7-2.5-3.6-2.6-1.8-.1-1.9 2.1-.1 2.2 0 0 .4.3.3.2.4.4.6.9.9 1.4.6 1.4.8 2.9.8 4.4h2.9c0-1.9-.3-3.9-1.2-5.6m-3.6-.4"/></g><path d="m36.3 16c-.3 0 .4.1 0 0 .3.1-.4-.3-.2-.2-.4-.4-.6-.9-.8-1.4-.6-1.4-.8-2.9-.8-4.4s.2-3 .8-4.4c.2-.5.4-.8.8-1.3.1-.1.1-.1.4-.3-.3.2 0 0 .1 0-.2.1-.2.1-.1 0h-.1c1.9-.1 1.9-2.3 0-2.2s-2.9 1.4-3.6 2.6c-.9 1.7-1.1 3.7-1.1 5.5s.3 3.8 1.1 5.5c.6 1.2 1.7 2.5 3.6 2.6 1.8.3 1.8-1.9-.1-2m-11.5 0c-.4 0 .3.1 0 0 .3.1-.4-.3-.2-.2-.4-.4-.6-.9-.9-1.4-.6-1.4-.8-2.9-.8-4.4s.2-3 .8-4.4c.2-.5.4-.8.8-1.3 0-.1.1-.1.4-.3-.3.2 0 0 .1 0-.2.1-.2.1-.1 0h-.1c1.9-.1 1.9-2.3 0-2.2s-2.9 1.4-3.6 2.6c-.9 1.7-1.1 3.7-1.1 5.5s.3 3.8 1.1 5.5c.6 1.2 1.7 2.5 3.6 2.6 1.8.3 1.8-1.9 0-2m-11.6 0c-.3 0 .3.1 0 0 .3.1-.4-.3-.2-.2-.4-.4-.6-.9-.9-1.4-.6-1.4-.8-2.9-.8-4.4s.2-3 .8-4.4c.2-.5.4-.8.8-1.3 0-.1.1-.1.4-.3-.3.2 0 0 .1 0-.2.1-.2.1-.1 0h-.1c1.9-.1 1.9-2.3 0-2.2s-2.9 1.4-3.6 2.6c-.9 1.7-1.1 3.7-1.1 5.5s.3 3.8 1.1 5.5c.6 1.2 1.7 2.5 3.6 2.6 1.9.3 1.9-1.9 0-2m34.7 0c-.3 0 .3.1 0 0 .3.1-.4-.3-.2-.2-.4-.4-.6-.9-.9-1.4-.6-1.4-.8-2.9-.8-4.4s.2-3 .8-4.4c.2-.5.4-.8.8-1.3 0-.1.1-.1.4-.3-.3.2 0 0 .1 0-.2.1-.2.1-.1 0h-.1c1.9-.1 1.9-2.3 0-2.2-1.9.3-2.9 1.6-3.6 2.8-.9 1.7-1.1 3.7-1.1 5.5s.3 3.8 1.1 5.5c.6 1.2 1.7 2.5 3.6 2.6s1.9-2.1 0-2.2" fill="#94989b"/><path d="m33.5 10.1c0-1.5.2-3.1.8-4.6.3-.7.9-2.1 2-2.1.6 0 .6-.7 0-.7-1.4 0-2.1 1.2-2.6 2-.9 1.7-1.1 3.5-1.1 5.3 0 .6.9.6.9.1m-11.6 0c0-1.5.2-3.1.8-4.6.3-.7.9-2.1 2-2.1.6 0 .6-.7 0-.7-1.4 0-2.1 1.2-2.6 2-.9 1.7-1.1 3.5-1.1 5.3.1.6.9.6.9.1m-11.5 0c0-1.5.2-3.1.8-4.6.3-.7.9-2.1 2-2.1.6 0 .6-.7 0-.7-1.4 0-2.1 1.2-2.6 2-.9 1.7-1.1 3.5-1.1 5.3 0 .6.9.6.9.1m34.7 0c0-1.5.2-3.1.8-4.6.3-.7.9-2.1 2-2.1.6 0 .6-.7 0-.7-1.4 0-2.1 1.2-2.6 2-.9 1.7-1.1 3.5-1.1 5.3 0 .6.9.6.9.1" fill="#d0d0d0"/><path d="m19.1 28.4v.2c0 .8.1 1.4.3 1.7.1.3.5.5 1 .5s.8-.2 1-.5c.1-.2.1-.6.1-1.1v-7.2h2.2v7.1c0 .9-.2 1.6-.5 2.1-.5.9-1.4 1.3-2.8 1.3s-2.2-.3-2.7-1-.7-1.6-.7-2.9v-.2zm6.9-6.3h2.2v6.3c0 .7.1 1.2.3 1.5.3.6.8.9 1.7.9s1.5-.3 1.7-.9c.2-.3.3-.8.3-1.5v-6.3h2.2v6.3c0 1.1-.2 1.9-.5 2.5-.7 1.1-1.9 1.7-3.7 1.7s-3.1-.6-3.7-1.7c-.3-.6-.5-1.5-.5-2.5zm10.6 0h2.2v8.4h5.3v1.8h-7.5z" fill="#fff"/><path d="m16.1 44.5v-2.8c1.3-.1 2.1-.1 2.6-.3.8-.2 1.4-.5 1.9-1.1.3-.4.6-.9.8-1.5.1-.4.2-.6.2-.8h3.3v20.6h-4.1v-14.1zm28.9-3c-.6.6-1.4 1.7-2.5 3.2s-2 3.1-2.7 4.7c-.6 1.3-1.1 2.8-1.5 4.7-.5 1.8-.7 3.4-.7 4.6h-4.1c.1-3.7 1.3-7.5 3.6-11.5 1.5-2.5 2.7-4.2 3.7-5.2h-10.1l.1-3.6h14.2z" fill="#333"/></svg>