<svg height="32" viewBox="0 0 32 32" width="32" xmlns="http://www.w3.org/2000/svg"><path d="m17.067 14.587c-1.366-1.354-2.974-2.06-4.824-2.119s-3.457.577-4.824 1.907c-1.355 1.366-2.032 3.008-2.032 4.927s.677 3.561 2.032 4.927c1.366 1.342 3.004 2.019 4.912 2.031 1.92.012 3.569-.665 4.948-2.031 1.355-1.366 1.997-2.979 1.926-4.839-.059-1.86-.772-3.461-2.138-4.803zm2.42 11.797c-1.979 1.931-4.341 2.896-7.086 2.896h-.035c-2.792 0-5.166-.965-7.121-2.896-1.955-1.943-2.933-4.297-2.933-7.064l-.035-.053c0-2.755.99-5.115 2.969-7.082 1.955-1.954 4.276-2.879 6.962-2.773 2.686.094 4.688.748 6.008 1.96l6.379-6.146-6.556-.035 2.474-2.472h8.729v8.689l-2.527 2.525v-6.587l-6.361 6.181c1.178 1.271 1.814 3.249 1.908 5.934.094 2.672-.831 4.98-2.774 6.923z"/></svg>